<?xml version="1.0" encoding="UTF-8"?>
<!DOCTYPE svg PUBLIC "-//W3C//DTD SVG 1.1//EN" "http://www.w3.org/Graphics/SVG/1.1/DTD/svg11.dtd">
<!-- Creator: CorelDRAW -->
<svg xmlns="http://www.w3.org/2000/svg" xml:space="preserve" width="1.68314in" height="0.316197in" version="1.1" style="shape-rendering:geometricPrecision; text-rendering:geometricPrecision; image-rendering:optimizeQuality; fill-rule:evenodd; clip-rule:evenodd"
viewBox="0 0 1359.75 255.44"
 xmlns:xlink="http://www.w3.org/1999/xlink"
 xmlns:xodm="http://www.corel.com/coreldraw/odm/2003">
 <defs>
  <style type="text/css">
   <![CDATA[
    .fil3 {fill:#848688;fill-rule:nonzero}
    .fil2 {fill:#4B4B4D;fill-rule:nonzero}
    .fil1 {fill:#F16136;fill-rule:nonzero}
    .fil0 {fill:#0082C6;fill-rule:nonzero}
   ]]>
  </style>
 </defs>
 <g id="Layer_x0020_1">
  <metadata id="CorelCorpID_0Corel-Layer"/>
  <g id="_2600901772656">
   <path class="fil0" d="M-0 153.26l0 -153.26 65.78 0c17.11,0 30.82,3.6 41.05,10.84 10.26,7.24 15.39,16.92 15.39,29.1 0,18.57 -10.99,30.71 -33,36.3 11.29,4.21 18.61,8.81 21.94,13.79 3.33,5.02 5.59,14.74 6.78,29.14 1.42,17.2 4.29,28.57 8.62,34.08l-48.21 0c-3.06,-7.08 -4.59,-15.97 -4.59,-26.58l-0.23 -9.07 -0.23 -11.41c0,-17.66 -7.12,-26.46 -21.33,-26.46l-7.62 0 0 73.53 -44.34 0zm44.34 -86.16l8.96 0c16.85,0 25.27,-8.81 25.27,-26.42 0,-17.62 -8.43,-26.42 -25.27,-26.42l-8.96 0 0 52.85z"/>
   <polygon class="fil1" points="287.37,0 287.37,153.26 244.41,153.26 244.41,46.72 214.58,153.26 189.81,153.26 159.17,48.52 159.17,153.26 144.24,153.26 144.24,0 189.35,0 215.58,92.6 241.73,0 "/>
   <path class="fil2" d="M354.57 142.14c0,3.27 -0.94,5.95 -2.8,8.01 -1.85,2.06 -4.27,3.1 -7.21,3.1l-34.54 0c-2.94,0 -5.35,-1.05 -7.21,-3.1 -1.85,-2.06 -2.8,-4.74 -2.8,-8.01l0 -127.62c0,-3.27 0.94,-5.95 2.8,-8.01 1.85,-2.06 4.27,-3.1 7.21,-3.1l34.54 0c2.94,0 5.36,1.04 7.21,3.1 1.85,2.06 2.8,4.74 2.8,8.01l0 34.39 -12 0 0 -33.74 -30.54 0 0 126.32 30.54 0 0 -51.78 -14.47 0 0 -11.57 26.48 0 0 64.01zm1005.18 11.12l-8.27 0 -36.04 -110.2 0 110.2 -11.3 0 0 -149.85 8.97 0 35.33 108.3 0 -108.3 11.3 0 0 149.85zm-70.05 -11.12c0,3.27 -0.94,5.95 -2.82,8.01 -1.85,2.06 -4.27,3.1 -7.18,3.1l-37.01 0c-2.95,0 -5.36,-1.05 -7.21,-3.1 -1.85,-2.06 -2.8,-4.74 -2.8,-8.01l0 -127.62c0,-3.27 0.94,-5.95 2.8,-8.01 1.85,-2.06 4.27,-3.1 7.21,-3.1l37.01 0c2.91,0 5.33,1.04 7.18,3.1 1.89,2.06 2.82,4.74 2.82,8.01l0 127.62zm-12 -0.65l0 -126.32 -33.01 0 0 126.32 33.01 0zm-60.41 11.77l-12 0 0 -149.85 12 0 0 149.85zm-19.73 -138.09l-20.83 0 0 138.09 -12 0 0 -138.09 -21.01 0 0 -11.76 53.84 0 0 11.76zm-55.59 138.09l-11.83 0 -4.74 -33.15 -26.86 0 -4.76 33.15 -11.48 0 0 -0.39 24.01 -149.86 11.83 0 23.83 150.25zm-18.12 -44.92l-11.83 -81.34 -11.94 81.34 23.77 0zm-50.15 33.8c0,3.27 -0.94,5.95 -2.82,8.01 -1.88,2.06 -4.29,3.1 -7.18,3.1l-34.01 0c-2.94,0 -5.36,-1.05 -7.21,-3.1 -1.85,-2.06 -2.8,-4.74 -2.8,-8.01l0 -127.62c0,-3.27 0.94,-5.95 2.8,-8.01 1.85,-2.06 4.27,-3.1 7.21,-3.1l34.01 0c2.88,0 5.3,1.04 7.18,3.1 1.88,2.06 2.82,4.74 2.82,8.01l0 34.39 -12 0 0 -33.74 -30.01 0 0 126.32 30.01 0 0 -36.88 12 0 0 37.53zm-68.48 0c0,3.27 -0.94,5.95 -2.82,8.01 -1.85,2.06 -4.27,3.1 -7.18,3.1l-35.95 0c-2.94,0 -5.36,-1.05 -7.21,-3.1 -1.85,-2.06 -2.8,-4.74 -2.8,-8.01l0 -138.74 12 0 0 138.08 31.95 0 0 -138.08 12 0 0 138.74zm-69.91 -15.99c0,7.88 -2.36,14.39 -7.03,19.46 -4.68,5.1 -10.59,7.65 -17.71,7.65l-30.86 0 0 -149.85 30.86 0c7.18,0 13.09,2.55 17.77,7.65 4.65,5.07 6.97,11.57 6.97,19.45l0 95.65zm-12 -1.34l0 -93.17c0,-4.9 -1.38,-8.89 -4.18,-11.93 -2.79,-3.04 -6.38,-4.55 -10.79,-4.55l-16.62 0 0 126.32 15.92 0c4.65,0 8.44,-1.47 11.33,-4.45 2.91,-2.97 4.35,-7.06 4.35,-12.23zm-55.24 28.44l-44.31 0 0 -149.85 43.77 0 0 11.76 -31.77 0 0 55.9 28.95 0 0 11.97 -28.95 0 0 58.45 32.3 0 0 11.77zm-81.31 -138.09l-31.42 0 0 56.88 28.95 0 0 11.96 -28.95 0 0 69.24 -12 0 0 -149.85 43.42 0 0 11.76zm-57.86 126.97c0,3.27 -0.94,5.95 -2.82,8.01 -1.85,2.06 -4.27,3.1 -7.18,3.1l-37.01 0c-2.94,0 -5.35,-1.05 -7.21,-3.1 -1.85,-2.06 -2.8,-4.74 -2.8,-8.01l0 -127.62c0,-3.27 0.94,-5.95 2.8,-8.01 1.85,-2.06 4.27,-3.1 7.21,-3.1l37.01 0c2.91,0 5.32,1.04 7.18,3.1 1.88,2.06 2.82,4.74 2.82,8.01l0 127.62zm-12 -0.65l0 -126.32 -33.01 0 0 126.32 33.01 0zm-84.37 -58.78c0,3.23 -0.94,5.92 -2.82,7.97 -1.85,2.09 -4.27,3.14 -7.18,3.14l-31.48 0 0 59.43 -12 0 0 -149.85 43.48 0c2.91,0 5.32,1.04 7.18,3.1 1.88,2.06 2.82,4.74 2.82,8.01l0 68.19zm-12 -0.85l0 -66.69 -29.48 0 0 66.69 29.48 0zm-55.95 60.28c0,3.27 -0.94,5.95 -2.82,8.01 -1.85,2.06 -4.27,3.1 -7.18,3.1l-35.95 0c-2.94,0 -5.35,-1.05 -7.21,-3.1 -1.85,-2.06 -2.79,-4.74 -2.79,-8.01l0 -138.74 12 0 0 138.08 31.95 0 0 -138.08 12 0 0 138.74zm-70.4 0c0,3.27 -0.94,5.95 -2.82,8.01 -1.85,2.06 -4.27,3.1 -7.18,3.1l-37.01 0c-2.95,0 -5.36,-1.05 -7.21,-3.1 -1.85,-2.06 -2.8,-4.74 -2.8,-8.01l0 -127.62c0,-3.27 0.94,-5.95 2.8,-8.01 1.85,-2.06 4.27,-3.1 7.21,-3.1l37.01 0c2.91,0 5.33,1.04 7.18,3.1 1.89,2.06 2.82,4.74 2.82,8.01l0 127.62zm-12 -0.65l0 -126.32 -33.01 0 0 126.32 33.01 0zm-48.85 11.77l-12.53 0 -25.06 -80.29 1.65 -2.68 21.3 0 0 -55.12 -30.71 0 0 138.09 -12 0 0 -149.85 44.72 0c2.94,0 5.35,1.04 7.21,3.1 1.85,2.06 2.79,4.74 2.79,8.01l0 56.03c0,7.42 -4.35,11.12 -13.09,11.12 -0.85,0 -2.12,-0.03 -3.79,-0.13 -1.65,-0.1 -2.85,-0.16 -3.62,-0.16 7.77,23.9 15.48,47.86 23.15,71.89z"/>
   <path class="fil3" d="M9.8 213.06c0,2.78 0.39,5.32 1.18,7.6 0.8,2.29 1.91,4.25 3.35,5.89 1.43,1.63 3.16,2.89 5.18,3.79 2.01,0.89 4.24,1.33 6.69,1.33 2.28,0 4.54,-0.3 6.78,-0.92 2.24,-0.6 4.38,-1.48 6.43,-2.61l0 6.79c-1.87,1.02 -3.99,1.79 -6.31,2.32 -2.33,0.52 -4.87,0.78 -7.62,0.78 -3.44,0 -6.59,-0.61 -9.44,-1.84 -2.87,-1.21 -5.33,-2.93 -7.41,-5.12 -2.06,-2.2 -3.66,-4.82 -4.81,-7.87 -1.14,-3.06 -1.7,-6.42 -1.7,-10.1 0,-3.79 0.62,-7.27 1.85,-10.45 1.22,-3.18 2.92,-5.93 5.09,-8.21 2.17,-2.3 4.73,-4.09 7.7,-5.39 2.96,-1.29 6.19,-1.93 9.66,-1.93 1.18,0 2.37,0.06 3.58,0.21 1.2,0.14 2.37,0.32 3.52,0.57 1.15,0.25 2.26,0.52 3.3,0.84 1.04,0.32 1.98,0.68 2.83,1.06l0 6.73c-0.87,-0.38 -1.85,-0.77 -2.92,-1.15 -1.08,-0.38 -2.19,-0.72 -3.35,-1.01 -1.15,-0.3 -2.33,-0.54 -3.52,-0.72 -1.21,-0.17 -2.37,-0.26 -3.5,-0.26 -2.34,0 -4.52,0.47 -6.55,1.4 -2.01,0.93 -3.75,2.25 -5.23,3.96 -1.47,1.71 -2.64,3.78 -3.48,6.2 -0.86,2.43 -1.28,5.14 -1.28,8.12zm1337.3 19.78c0,-0.69 0.12,-1.32 0.39,-1.9 0.25,-0.58 0.63,-1.07 1.09,-1.52 0.46,-0.43 1,-0.77 1.61,-1.01 0.62,-0.25 1.27,-0.37 1.98,-0.37 0.73,0 1.4,0.12 2.01,0.37 0.62,0.24 1.14,0.58 1.6,1.01 0.45,0.45 0.8,0.94 1.06,1.52 0.27,0.58 0.4,1.2 0.4,1.9 0,0.67 -0.13,1.29 -0.4,1.88 -0.26,0.58 -0.61,1.1 -1.06,1.55 -0.46,0.44 -0.99,0.8 -1.6,1.06 -0.61,0.25 -1.28,0.38 -2.01,0.38 -0.71,0 -1.36,-0.13 -1.98,-0.38 -0.61,-0.26 -1.15,-0.61 -1.61,-1.06 -0.46,-0.45 -0.84,-0.97 -1.09,-1.55 -0.27,-0.59 -0.39,-1.21 -0.39,-1.88zm-24.62 0c0,-0.69 0.13,-1.32 0.4,-1.9 0.26,-0.58 0.63,-1.07 1.09,-1.52 0.46,-0.43 1,-0.77 1.61,-1.01 0.62,-0.25 1.27,-0.37 1.98,-0.37 0.73,0 1.4,0.12 2.01,0.37 0.62,0.24 1.14,0.58 1.6,1.01 0.45,0.45 0.81,0.94 1.06,1.52 0.27,0.58 0.4,1.2 0.4,1.9 0,0.67 -0.13,1.29 -0.4,1.88 -0.25,0.58 -0.61,1.1 -1.06,1.55 -0.46,0.44 -0.99,0.8 -1.6,1.06 -0.61,0.25 -1.28,0.38 -2.01,0.38 -0.71,0 -1.36,-0.13 -1.98,-0.38 -0.61,-0.26 -1.15,-0.61 -1.61,-1.06 -0.46,-0.45 -0.83,-0.97 -1.09,-1.55 -0.27,-0.59 -0.4,-1.21 -0.4,-1.88zm-13.92 -4.37c0,1.36 -0.23,2.61 -0.69,3.78 -0.46,1.16 -1.17,2.17 -2.1,3.02 -0.94,0.86 -2.12,1.53 -3.54,2.01 -1.41,0.48 -3.06,0.73 -4.97,0.73 -1.84,0 -3.6,-0.24 -5.25,-0.71 -1.65,-0.48 -3.05,-1.15 -4.2,-2.03l0 -6.37c0.65,0.46 1.37,0.9 2.15,1.35 0.8,0.43 1.6,0.81 2.42,1.13 0.83,0.33 1.64,0.58 2.43,0.77 0.81,0.19 1.54,0.29 2.22,0.29 1.63,0 2.82,-0.35 3.56,-1.07 0.76,-0.71 1.13,-1.57 1.13,-2.59 0,-0.54 -0.08,-1.02 -0.23,-1.44 -0.14,-0.42 -0.42,-0.82 -0.83,-1.19 -0.42,-0.37 -0.99,-0.73 -1.73,-1.08 -0.74,-0.37 -1.68,-0.74 -2.83,-1.15 -1.58,-0.59 -2.9,-1.21 -3.96,-1.85 -1.06,-0.66 -1.91,-1.37 -2.55,-2.15 -0.64,-0.78 -1.09,-1.63 -1.37,-2.54 -0.27,-0.9 -0.41,-1.9 -0.41,-2.97 0,-1.37 0.29,-2.64 0.88,-3.78 0.59,-1.12 1.39,-2.11 2.4,-2.93 1.01,-0.81 2.2,-1.45 3.57,-1.9 1.36,-0.45 2.82,-0.67 4.37,-0.67 1.4,0 2.78,0.14 4.13,0.42 1.36,0.29 2.67,0.77 3.95,1.45l0 5.74c-1.23,-0.56 -2.53,-1.03 -3.88,-1.4 -1.37,-0.38 -2.72,-0.56 -4.04,-0.56 -1.55,0 -2.72,0.34 -3.51,1.01 -0.78,0.67 -1.18,1.52 -1.18,2.54 0,0.43 0.08,0.85 0.24,1.23 0.17,0.38 0.45,0.76 0.85,1.11 0.4,0.35 0.95,0.72 1.65,1.09 0.69,0.38 1.59,0.76 2.67,1.14 1.5,0.54 2.79,1.1 3.88,1.7 1.09,0.6 1.99,1.27 2.71,2.01 0.7,0.75 1.23,1.6 1.56,2.55 0.35,0.96 0.51,2.07 0.51,3.31zm-65.27 -22.62l7.23 0 0 19.47c0,2.2 0.45,3.88 1.33,5.09 0.9,1.21 2.24,1.81 4.04,1.81 0.81,0 1.59,-0.1 2.36,-0.3 0.76,-0.21 1.48,-0.48 2.15,-0.82 0.68,-0.35 1.31,-0.73 1.9,-1.15 0.59,-0.43 1.13,-0.86 1.6,-1.32l0 -22.76 7.23 0 0 31.46 -7 0 -0.23 -3.14c-0.52,0.48 -1.11,0.95 -1.77,1.41 -0.64,0.46 -1.37,0.88 -2.15,1.23 -0.8,0.35 -1.64,0.64 -2.55,0.86 -0.92,0.22 -1.88,0.34 -2.91,0.34 -3.83,0 -6.66,-1.05 -8.48,-3.12 -1.83,-2.08 -2.74,-5.11 -2.74,-9.1l0 -19.94zm-41.36 31.46l-7.23 0 0 -19.47c0,-2.23 -0.45,-3.92 -1.33,-5.11 -0.9,-1.19 -2.24,-1.78 -4.04,-1.78 -0.88,0 -1.71,0.1 -2.5,0.33 -0.8,0.21 -1.52,0.5 -2.2,0.86 -0.68,0.35 -1.29,0.74 -1.84,1.19 -0.55,0.43 -1.04,0.86 -1.46,1.29l0 22.69 -7.23 0 0 -49.58 7.23 0 0 15.99c0,0.31 0,0.68 -0.02,1.12 -0.01,0.44 -0.02,0.88 -0.04,1.36 -0.01,0.47 -0.03,0.93 -0.04,1.37 -0.01,0.45 -0.04,0.85 -0.06,1.2 0.52,-0.46 1.14,-0.9 1.84,-1.33 0.71,-0.43 1.46,-0.82 2.3,-1.18 0.82,-0.34 1.69,-0.61 2.6,-0.82 0.91,-0.2 1.84,-0.3 2.8,-0.3 3.83,0 6.66,1.07 8.48,3.22 1.83,2.14 2.74,5.2 2.74,9.19l0 19.76zm-43.69 -0.68c-0.85,0.46 -1.89,0.81 -3.09,1.05 -1.19,0.22 -2.45,0.34 -3.76,0.34 -3.04,0 -5.2,-0.85 -6.49,-2.54 -1.31,-1.69 -1.96,-4.26 -1.96,-7.74l0 -16.87 -5.77 0 0 -5.02 6 0c0.42,-1.36 0.86,-2.78 1.29,-4.24 0.44,-1.46 0.85,-2.85 1.22,-4.16l4.48 0 0 8.4 8.6 0 0 5.02 -8.6 0 0 17.98c0,1.1 0.27,1.99 0.82,2.65 0.55,0.68 1.36,1.02 2.41,1.02 0.93,0 1.8,-0.04 2.59,-0.13 0.81,-0.09 1.55,-0.2 2.26,-0.32l0 4.56zm-35.07 -39.75c0,0.62 -0.13,1.16 -0.37,1.65 -0.26,0.48 -0.59,0.9 -1,1.26 -0.41,0.34 -0.88,0.6 -1.43,0.78 -0.55,0.17 -1.13,0.26 -1.73,0.26 -1.24,0 -2.31,-0.34 -3.16,-1.02 -0.86,-0.67 -1.29,-1.65 -1.29,-2.93 0,-1.21 0.44,-2.17 1.29,-2.86 0.86,-0.69 1.92,-1.03 3.16,-1.03 0.6,0 1.18,0.09 1.73,0.26 0.55,0.18 1.02,0.45 1.43,0.78 0.41,0.36 0.74,0.76 1,1.23 0.24,0.47 0.37,1.02 0.37,1.62zm-1 40.43l-7.23 0 0 -31.46 7.23 0 0 31.46zm-21.47 -31.46l-11.67 31.46 -6.52 0 -5.07 -16.63c-0.35,-1.12 -0.64,-2.13 -0.86,-3.01 -0.23,-0.87 -0.37,-1.56 -0.45,-2.01l-0.23 0c-0.1,0.46 -0.25,1.12 -0.49,2 -0.23,0.86 -0.52,1.9 -0.9,3.1l-5.25 16.55 -6.3 0 -11.22 -31.46 7.39 0 5.29 16.63c0.16,0.38 0.31,0.85 0.47,1.41 0.16,0.56 0.31,1.15 0.46,1.77 0.16,0.61 0.3,1.23 0.44,1.84 0.14,0.61 0.24,1.16 0.32,1.65l0.18 0c0.08,-0.51 0.19,-1.09 0.34,-1.71 0.14,-0.61 0.32,-1.24 0.5,-1.86 0.19,-0.61 0.38,-1.19 0.55,-1.74 0.17,-0.55 0.32,-1.01 0.45,-1.36l5.22 -16.63 5.51 0 5.19 16.63c0.11,0.38 0.27,0.85 0.42,1.41 0.17,0.56 0.33,1.15 0.51,1.77 0.18,0.61 0.34,1.23 0.5,1.84 0.17,0.61 0.29,1.16 0.4,1.65l0.08 0c0.13,-0.49 0.27,-1.05 0.44,-1.68 0.15,-0.63 0.32,-1.24 0.49,-1.87 0.16,-0.63 0.33,-1.21 0.5,-1.77 0.18,-0.55 0.32,-1.01 0.41,-1.36l5.45 -16.63 7.47 0zm-99.21 5.02c-2.41,0 -4.37,0.61 -5.88,1.86 -1.52,1.24 -2.52,3.06 -3.02,5.44l16.3 0c-0.13,-2.38 -0.82,-4.2 -2.1,-5.44 -1.28,-1.24 -3.05,-1.86 -5.29,-1.86zm-16.06 10.51c0,-2.42 0.38,-4.64 1.17,-6.64 0.77,-2 1.87,-3.71 3.28,-5.14 1.42,-1.41 3.11,-2.51 5.09,-3.3 1.98,-0.77 4.18,-1.16 6.61,-1.16 2.37,0 4.46,0.35 6.25,1.05 1.78,0.71 3.3,1.71 4.52,3.01 1.23,1.29 2.14,2.89 2.76,4.79 0.62,1.88 0.92,4.01 0.92,6.38l0 3.14 -23.6 0c0.13,1.31 0.46,2.51 1,3.62 0.54,1.13 1.26,2.08 2.18,2.87 0.91,0.8 1.98,1.41 3.23,1.87 1.23,0.44 2.6,0.66 4.1,0.66 0.88,0 1.81,-0.08 2.81,-0.25 0.99,-0.17 2,-0.4 3.04,-0.73 1.04,-0.31 2.07,-0.71 3.11,-1.18 1.04,-0.46 2.04,-0.99 2.99,-1.61l0 5.8c-1.9,1.1 -3.91,1.95 -6.02,2.55 -2.12,0.6 -4.52,0.9 -7.22,0.9 -2.51,0 -4.75,-0.38 -6.75,-1.12 -2,-0.76 -3.7,-1.86 -5.1,-3.28 -1.41,-1.42 -2.49,-3.18 -3.23,-5.23 -0.76,-2.05 -1.13,-4.38 -1.13,-7zm-40.36 1.32c0,1.69 0.18,3.11 0.52,4.29 0.35,1.17 0.86,2.13 1.53,2.88 0.65,0.73 1.46,1.27 2.42,1.61 0.95,0.33 2.03,0.5 3.23,0.5 1.29,0 2.69,-0.31 4.16,-0.94 1.47,-0.63 2.88,-1.52 4.2,-2.67l0 -17.51c-0.65,-0.16 -1.38,-0.26 -2.22,-0.34 -0.82,-0.08 -1.68,-0.12 -2.55,-0.12 -2.1,0 -3.87,0.35 -5.31,1.06 -1.44,0.69 -2.6,1.62 -3.49,2.77 -0.89,1.15 -1.53,2.46 -1.92,3.92 -0.39,1.48 -0.58,3 -0.58,4.55zm-7.38 0.25c0,-2.68 0.42,-5.11 1.28,-7.31 0.85,-2.2 2.05,-4.07 3.6,-5.62 1.55,-1.54 3.44,-2.73 5.66,-3.6 2.23,-0.85 4.72,-1.28 7.45,-1.28 1.24,0 2.47,0.05 3.68,0.17 1.21,0.12 2.35,0.26 3.45,0.45 1.1,0.18 2.13,0.39 3.09,0.63 0.95,0.25 1.77,0.5 2.47,0.74l0 28.39c0,3.27 -0.28,6.14 -0.85,8.63 -0.56,2.49 -1.51,4.58 -2.83,6.25 -1.33,1.67 -3.07,2.93 -5.25,3.77 -2.18,0.85 -4.88,1.27 -8.11,1.27 -1.87,0 -3.68,-0.13 -5.41,-0.38 -1.73,-0.26 -3.29,-0.63 -4.69,-1.12l0 -6.27c1.9,0.59 3.74,1.03 5.51,1.35 1.78,0.3 3.47,0.46 5.1,0.46 1.86,0 3.38,-0.34 4.58,-1.01 1.2,-0.68 2.15,-1.61 2.86,-2.77 0.69,-1.18 1.18,-2.55 1.46,-4.13 0.27,-1.58 0.41,-3.28 0.41,-5.09l0 -2.46c-1.4,1.03 -2.89,1.87 -4.5,2.53 -1.6,0.67 -3.41,1 -5.41,1 -2.23,0 -4.18,-0.34 -5.87,-1.02 -1.69,-0.66 -3.1,-1.64 -4.24,-2.9 -1.14,-1.27 -2,-2.8 -2.57,-4.61 -0.58,-1.79 -0.86,-3.82 -0.86,-6.07zm-29.47 -12.08c-2.41,0 -4.37,0.61 -5.88,1.86 -1.52,1.24 -2.52,3.06 -3.02,5.44l16.3 0c-0.13,-2.38 -0.82,-4.2 -2.1,-5.44 -1.28,-1.24 -3.05,-1.86 -5.29,-1.86zm-16.06 10.51c0,-2.42 0.38,-4.64 1.17,-6.64 0.77,-2 1.87,-3.71 3.28,-5.14 1.42,-1.41 3.11,-2.51 5.09,-3.3 1.98,-0.77 4.18,-1.16 6.61,-1.16 2.37,0 4.46,0.35 6.25,1.05 1.78,0.71 3.3,1.71 4.52,3.01 1.23,1.29 2.14,2.89 2.76,4.79 0.61,1.88 0.92,4.01 0.92,6.38l0 3.14 -23.6 0c0.13,1.31 0.46,2.51 1,3.62 0.53,1.13 1.25,2.08 2.18,2.87 0.91,0.8 1.99,1.41 3.23,1.87 1.23,0.44 2.6,0.66 4.1,0.66 0.88,0 1.81,-0.08 2.81,-0.25 0.99,-0.17 2,-0.4 3.04,-0.73 1.04,-0.31 2.08,-0.71 3.11,-1.18 1.04,-0.46 2.04,-0.99 2.99,-1.61l0 5.8c-1.9,1.1 -3.91,1.95 -6.02,2.55 -2.12,0.6 -4.53,0.9 -7.22,0.9 -2.51,0 -4.75,-0.38 -6.75,-1.12 -2,-0.76 -3.71,-1.86 -5.1,-3.28 -1.41,-1.42 -2.48,-3.18 -3.23,-5.23 -0.75,-2.05 -1.13,-4.38 -1.13,-7zm-17.08 15.93l-7.23 0 0 -49.58 7.23 0 0 49.58zm-26.46 0l-7.23 0 0 -49.58 7.23 0 0 49.58zm-31.53 -15.86c0,-3.48 -0.75,-6.09 -2.25,-7.86 -1.5,-1.77 -3.69,-2.64 -6.57,-2.64 -2.91,0 -5.17,0.9 -6.79,2.72 -1.63,1.82 -2.45,4.46 -2.45,7.92 0,1.66 0.22,3.15 0.64,4.48 0.42,1.3 1.04,2.42 1.83,3.33 0.81,0.9 1.78,1.6 2.92,2.08 1.14,0.49 2.42,0.73 3.85,0.73 2.88,0 5.07,-0.92 6.57,-2.76 1.5,-1.84 2.25,-4.51 2.25,-8zm7.23 0.01c0,2.48 -0.38,4.75 -1.17,6.79 -0.77,2.04 -1.87,3.78 -3.3,5.23 -1.43,1.44 -3.16,2.56 -5.2,3.35 -2.04,0.8 -4.33,1.19 -6.88,1.19 -2.45,0 -4.68,-0.38 -6.67,-1.15 -1.98,-0.76 -3.68,-1.84 -5.07,-3.23 -1.41,-1.4 -2.49,-3.09 -3.25,-5.09 -0.76,-1.99 -1.14,-4.21 -1.14,-6.67 0,-2.63 0.38,-4.97 1.17,-7.05 0.77,-2.07 1.9,-3.82 3.36,-5.27 1.46,-1.44 3.24,-2.54 5.33,-3.3 2.08,-0.74 4.43,-1.13 7.06,-1.13 2.54,0 4.77,0.37 6.71,1.11 1.96,0.74 3.6,1.82 4.93,3.22 1.35,1.41 2.36,3.11 3.06,5.14 0.71,2.01 1.05,4.3 1.05,6.85zm-66.81 0.48c0,1.79 0.24,3.32 0.73,4.62 0.49,1.28 1.14,2.34 1.93,3.17 0.81,0.83 1.73,1.44 2.79,1.82 1.08,0.38 2.17,0.58 3.3,0.58 2.23,0 4.2,-0.33 5.92,-0.98 1.7,-0.66 3.36,-1.45 4.93,-2.39l0 6.02c-1.5,1.06 -3.19,1.86 -5.06,2.41 -1.89,0.55 -4.04,0.82 -6.46,0.82 -2.26,0 -4.32,-0.37 -6.21,-1.08 -1.88,-0.73 -3.51,-1.79 -4.85,-3.19 -1.36,-1.39 -2.41,-3.09 -3.18,-5.08 -0.76,-1.99 -1.14,-4.25 -1.14,-6.78 0,-2.76 0.45,-5.18 1.34,-7.26 0.91,-2.08 2.12,-3.82 3.65,-5.23 1.53,-1.4 3.31,-2.46 5.36,-3.18 2.05,-0.72 4.21,-1.07 6.49,-1.07 1.66,0 3.37,0.21 5.17,0.63 1.78,0.42 3.42,1.11 4.89,2.05l0 6.34c-1.58,-1.02 -3.2,-1.8 -4.87,-2.34 -1.66,-0.53 -3.4,-0.8 -5.2,-0.8 -1.27,0 -2.49,0.2 -3.65,0.59 -1.16,0.4 -2.18,1.05 -3.05,1.92 -0.86,0.87 -1.55,2.01 -2.07,3.39 -0.51,1.39 -0.77,3.05 -0.77,5.02zm-67.49 15.37l-7.23 0 0 -19.47c0,-2.23 -0.42,-3.92 -1.26,-5.11 -0.85,-1.19 -2.12,-1.78 -3.81,-1.78 -0.78,0 -1.54,0.12 -2.29,0.37 -0.76,0.24 -1.46,0.53 -2.13,0.9 -0.65,0.35 -1.27,0.74 -1.82,1.16 -0.55,0.42 -1.01,0.81 -1.38,1.16l0 22.77 -7.23 0 0 -31.46 7 0 0.15 3.14c0.52,-0.46 1.11,-0.93 1.77,-1.4 0.64,-0.47 1.36,-0.89 2.13,-1.24 0.78,-0.35 1.6,-0.64 2.46,-0.87 0.86,-0.22 1.77,-0.34 2.72,-0.34 2.33,0 4.27,0.46 5.83,1.37 1.56,0.93 2.74,2.18 3.55,3.8 0.63,-0.61 1.33,-1.24 2.13,-1.87 0.78,-0.61 1.63,-1.18 2.53,-1.66 0.91,-0.48 1.86,-0.87 2.84,-1.19 0.99,-0.3 2,-0.46 3.02,-0.46 3.7,0 6.44,1.09 8.2,3.27 1.77,2.19 2.65,5.26 2.65,9.22l0 19.68 -7.22 0 0 -19.47c0,-2.23 -0.42,-3.92 -1.26,-5.11 -0.85,-1.19 -2.09,-1.78 -3.75,-1.78 -0.85,0 -1.67,0.14 -2.46,0.42 -0.79,0.29 -1.52,0.63 -2.2,1.03 -0.68,0.42 -1.28,0.87 -1.82,1.35 -0.54,0.49 -0.98,0.93 -1.31,1.34 0.05,0.29 0.1,0.69 0.14,1.21 0.04,0.52 0.05,0.97 0.05,1.32l0 19.69zm-53.42 -14.44c-0.58,-0.05 -1.22,-0.09 -1.92,-0.12 -0.7,-0.03 -1.43,-0.04 -2.21,-0.04 -1.68,0 -3.07,0.16 -4.14,0.46 -1.08,0.31 -1.93,0.72 -2.56,1.23 -0.63,0.51 -1.07,1.08 -1.32,1.72 -0.24,0.64 -0.37,1.29 -0.37,1.99 0,1.31 0.38,2.37 1.15,3.18 0.75,0.82 1.83,1.23 3.21,1.23 1.4,0 2.83,-0.31 4.28,-0.95 1.46,-0.64 2.75,-1.5 3.88,-2.58l0 -6.12zm6.93 15.14c-0.92,0 -1.73,-0.09 -2.44,-0.29 -0.69,-0.2 -1.29,-0.46 -1.79,-0.8 -0.5,-0.35 -0.92,-0.77 -1.25,-1.26 -0.35,-0.48 -0.62,-1.03 -0.81,-1.64 -1.2,1.12 -2.61,2.08 -4.25,2.83 -1.63,0.77 -3.56,1.15 -5.82,1.15 -1.76,0 -3.3,-0.25 -4.6,-0.73 -1.32,-0.48 -2.41,-1.16 -3.27,-2.03 -0.87,-0.87 -1.51,-1.88 -1.96,-3.04 -0.44,-1.16 -0.66,-2.43 -0.66,-3.82 0,-3.43 1.28,-6.05 3.86,-7.87 2.56,-1.83 6.37,-2.75 11.39,-2.75 0.76,0 1.5,0.01 2.25,0.05 0.74,0.04 1.55,0.1 2.42,0.18 0,-2.33 -0.47,-4.12 -1.44,-5.36 -0.94,-1.24 -2.51,-1.86 -4.69,-1.86 -1.56,0 -3.15,0.2 -4.76,0.6 -1.62,0.39 -3.22,0.93 -4.8,1.59l0 -5.7c1.39,-0.67 2.95,-1.19 4.72,-1.57 1.77,-0.38 3.47,-0.58 5.12,-0.58 2.13,0 4.01,0.21 5.64,0.63 1.63,0.43 2.98,1.12 4.09,2.1 1.1,1 1.93,2.29 2.5,3.9 0.57,1.61 0.85,3.58 0.85,5.93l0 12.14c0,0.91 0.23,1.6 0.69,2.03 0.46,0.43 0.95,0.65 1.45,0.65 0.5,0 0.96,-0.01 1.4,-0.05 0.42,-0.04 0.91,-0.13 1.46,-0.25l0 4.41c-0.63,0.46 -1.4,0.81 -2.31,1.05 -0.91,0.22 -1.91,0.34 -2.98,0.34zm-55.94 -27.15c-2.41,0 -4.37,0.61 -5.88,1.86 -1.53,1.24 -2.53,3.06 -3.02,5.44l16.3 0c-0.13,-2.38 -0.82,-4.2 -2.1,-5.44 -1.28,-1.24 -3.05,-1.86 -5.29,-1.86zm-16.06 10.51c0,-2.42 0.38,-4.64 1.16,-6.64 0.77,-2 1.87,-3.71 3.28,-5.14 1.42,-1.41 3.11,-2.51 5.09,-3.3 1.98,-0.77 4.17,-1.16 6.61,-1.16 2.37,0 4.46,0.35 6.25,1.05 1.78,0.71 3.29,1.71 4.53,3.01 1.23,1.29 2.14,2.89 2.75,4.79 0.62,1.88 0.93,4.01 0.93,6.38l0 3.14 -23.6 0c0.13,1.31 0.46,2.51 1,3.62 0.54,1.13 1.26,2.08 2.18,2.87 0.91,0.8 1.98,1.41 3.23,1.87 1.23,0.44 2.6,0.66 4.1,0.66 0.88,0 1.81,-0.08 2.81,-0.25 0.99,-0.17 2,-0.4 3.03,-0.73 1.04,-0.31 2.08,-0.71 3.12,-1.18 1.04,-0.46 2.04,-0.99 2.98,-1.61l0 5.8c-1.9,1.1 -3.91,1.95 -6.02,2.55 -2.12,0.6 -4.53,0.9 -7.22,0.9 -2.51,0 -4.75,-0.38 -6.75,-1.12 -2,-0.76 -3.7,-1.86 -5.1,-3.28 -1.41,-1.42 -2.48,-3.18 -3.23,-5.23 -0.76,-2.05 -1.13,-4.38 -1.13,-7zm-17.76 -16.24c0.85,0 1.67,0.09 2.45,0.29 0.79,0.2 1.59,0.45 2.38,0.74l0 5.98c-0.85,-0.21 -1.76,-0.35 -2.7,-0.45 -0.95,-0.09 -1.84,-0.13 -2.69,-0.13 -0.95,0 -1.76,0.21 -2.42,0.63 -0.67,0.43 -1.19,0.98 -1.59,1.69 -0.4,0.71 -0.69,1.52 -0.87,2.46 -0.17,0.93 -0.25,1.91 -0.25,2.93l0 18.03 -7.23 0 0 -20.88c0,-0.94 -0.04,-1.95 -0.11,-2.99 -0.08,-1.05 -0.17,-2.05 -0.28,-3.02 -0.1,-0.98 -0.23,-1.86 -0.37,-2.67 -0.13,-0.8 -0.26,-1.44 -0.38,-1.9l6.09 0c0.13,0.23 0.25,0.53 0.38,0.94 0.11,0.39 0.24,0.83 0.35,1.3 0.11,0.47 0.22,0.98 0.32,1.51 0.1,0.54 0.18,1.06 0.23,1.57 0.37,-0.64 0.77,-1.31 1.19,-2.01 0.43,-0.69 0.92,-1.35 1.47,-1.95 0.54,-0.6 1.15,-1.1 1.81,-1.48 0.66,-0.39 1.41,-0.59 2.24,-0.59zm-56.12 16.73c0,1.78 0.22,3.33 0.64,4.63 0.42,1.31 1.01,2.38 1.74,3.22 0.74,0.85 1.6,1.48 2.58,1.88 0.97,0.41 2.02,0.62 3.12,0.62 0.95,0 1.86,-0.12 2.72,-0.37 0.87,-0.24 1.67,-0.54 2.41,-0.9 0.74,-0.35 1.41,-0.74 2.01,-1.16 0.6,-0.42 1.11,-0.81 1.54,-1.18l0 -15.78c-0.3,-0.26 -0.7,-0.52 -1.21,-0.79 -0.5,-0.28 -1.05,-0.51 -1.66,-0.73 -0.62,-0.21 -1.28,-0.39 -1.98,-0.54 -0.7,-0.14 -1.42,-0.21 -2.15,-0.21 -1.21,0 -2.42,0.18 -3.6,0.56 -1.18,0.37 -2.23,1 -3.14,1.87 -0.91,0.89 -1.64,2.04 -2.19,3.49 -0.55,1.44 -0.83,3.24 -0.83,5.39zm23.99 15.44l-6.93 0 -0.22 -2.76c-0.58,0.45 -1.24,0.89 -1.98,1.31 -0.76,0.41 -1.56,0.77 -2.45,1.08 -0.87,0.33 -1.79,0.58 -2.75,0.77 -0.96,0.19 -1.95,0.3 -2.95,0.3 -2.02,0 -3.89,-0.35 -5.6,-1.06 -1.7,-0.69 -3.18,-1.73 -4.42,-3.1 -1.26,-1.36 -2.23,-3.06 -2.94,-5.07 -0.7,-2.02 -1.05,-4.35 -1.05,-7.01 0,-2.51 0.37,-4.78 1.13,-6.83 0.74,-2.04 1.82,-3.79 3.2,-5.24 1.4,-1.46 3.09,-2.59 5.07,-3.37 1.99,-0.8 4.22,-1.19 6.66,-1.19 1.55,0 3,0.18 4.36,0.55 1.35,0.38 2.56,0.85 3.64,1.44l0 -19.4 7.23 0 0 49.58zm-72.65 -32.17c0.85,0 1.66,0.09 2.45,0.29 0.79,0.2 1.59,0.45 2.38,0.74l0 5.98c-0.85,-0.21 -1.76,-0.35 -2.7,-0.45 -0.95,-0.09 -1.84,-0.13 -2.69,-0.13 -0.95,0 -1.76,0.21 -2.42,0.63 -0.67,0.43 -1.19,0.98 -1.59,1.69 -0.4,0.71 -0.69,1.52 -0.87,2.46 -0.17,0.93 -0.25,1.91 -0.25,2.93l0 18.03 -7.23 0 0 -20.88c0,-0.94 -0.04,-1.95 -0.11,-2.99 -0.08,-1.05 -0.17,-2.05 -0.28,-3.02 -0.1,-0.98 -0.23,-1.86 -0.37,-2.67 -0.13,-0.8 -0.26,-1.44 -0.39,-1.9l6.09 0c0.13,0.23 0.26,0.53 0.38,0.94 0.11,0.39 0.24,0.83 0.35,1.3 0.11,0.47 0.22,0.98 0.32,1.51 0.1,0.54 0.18,1.06 0.23,1.57 0.37,-0.64 0.77,-1.31 1.19,-2.01 0.44,-0.69 0.92,-1.35 1.47,-1.95 0.54,-0.6 1.15,-1.1 1.81,-1.48 0.67,-0.39 1.41,-0.59 2.25,-0.59zm-59.98 0.71l7.23 0 0 19.47c0,2.2 0.45,3.88 1.33,5.09 0.9,1.21 2.24,1.81 4.04,1.81 0.81,0 1.59,-0.1 2.36,-0.3 0.75,-0.21 1.47,-0.48 2.15,-0.82 0.68,-0.35 1.31,-0.73 1.9,-1.15 0.59,-0.43 1.13,-0.86 1.6,-1.32l0 -22.76 7.23 0 0 31.46 -7 0 -0.23 -3.14c-0.52,0.48 -1.12,0.95 -1.77,1.41 -0.64,0.46 -1.37,0.88 -2.15,1.23 -0.79,0.35 -1.64,0.64 -2.55,0.86 -0.93,0.22 -1.89,0.34 -2.91,0.34 -3.83,0 -6.66,-1.05 -8.48,-3.12 -1.83,-2.08 -2.74,-5.11 -2.74,-9.1l0 -19.94zm-23.61 15.6c0,-3.48 -0.76,-6.09 -2.26,-7.86 -1.5,-1.77 -3.69,-2.64 -6.57,-2.64 -2.91,0 -5.16,0.9 -6.79,2.72 -1.63,1.82 -2.45,4.46 -2.45,7.92 0,1.66 0.22,3.15 0.64,4.48 0.42,1.3 1.04,2.42 1.83,3.33 0.81,0.9 1.78,1.6 2.92,2.08 1.14,0.49 2.42,0.73 3.84,0.73 2.88,0 5.08,-0.92 6.57,-2.76 1.5,-1.84 2.26,-4.51 2.26,-8zm7.23 0.01c0,2.48 -0.38,4.75 -1.17,6.79 -0.77,2.04 -1.87,3.78 -3.29,5.23 -1.43,1.44 -3.16,2.56 -5.2,3.35 -2.04,0.8 -4.33,1.19 -6.88,1.19 -2.45,0 -4.68,-0.38 -6.66,-1.15 -1.98,-0.76 -3.68,-1.84 -5.07,-3.23 -1.41,-1.4 -2.48,-3.09 -3.25,-5.09 -0.76,-1.99 -1.14,-4.21 -1.14,-6.67 0,-2.63 0.38,-4.97 1.17,-7.05 0.77,-2.07 1.9,-3.82 3.36,-5.27 1.46,-1.44 3.24,-2.54 5.33,-3.3 2.08,-0.74 4.44,-1.13 7.06,-1.13 2.54,0 4.77,0.37 6.71,1.11 1.96,0.74 3.6,1.82 4.94,3.22 1.35,1.41 2.36,3.11 3.06,5.14 0.7,2.01 1.05,4.3 1.05,6.85zm-44.35 -15.61l-11.23 28.16c-0.42,1.13 -0.88,2.53 -1.38,4.2 -0.5,1.67 -1.03,3.49 -1.56,5.48 -0.54,1.98 -1.06,3.95 -1.59,5.93 -0.53,1.96 -1.01,3.9 -1.46,5.82l-7.35 0c0.45,-1.87 0.88,-3.57 1.31,-5.11 0.42,-1.54 0.87,-3.07 1.35,-4.58 0.49,-1.52 0.99,-3.01 1.51,-4.48 0.53,-1.49 1.1,-3.15 1.72,-4.98 -2.12,-4.98 -4.29,-10.05 -6.51,-15.22 -2.22,-5.15 -4.37,-10.23 -6.47,-15.21l7.92 0 7.62 20.23c0.11,0.29 0.23,0.61 0.33,0.98 0.1,0.37 0.19,0.69 0.26,0.98 0.07,-0.29 0.18,-0.59 0.28,-0.9 0.11,-0.31 0.23,-0.62 0.36,-0.9l7.43 -20.38 7.47 0zm-81.45 5.02c-2.41,0 -4.37,0.61 -5.88,1.86 -1.52,1.24 -2.52,3.06 -3.02,5.44l16.3 0c-0.13,-2.38 -0.82,-4.2 -2.1,-5.44 -1.28,-1.24 -3.05,-1.86 -5.3,-1.86zm-16.06 10.51c0,-2.42 0.38,-4.64 1.17,-6.64 0.77,-2 1.87,-3.71 3.28,-5.14 1.42,-1.41 3.11,-2.51 5.09,-3.3 1.99,-0.77 4.18,-1.16 6.62,-1.16 2.37,0 4.46,0.35 6.25,1.05 1.78,0.71 3.29,1.71 4.52,3.01 1.23,1.29 2.14,2.89 2.75,4.79 0.61,1.88 0.92,4.01 0.92,6.38l0 3.14 -23.6 0c0.13,1.31 0.46,2.51 1,3.62 0.54,1.13 1.26,2.08 2.18,2.87 0.91,0.8 1.99,1.41 3.23,1.87 1.23,0.44 2.6,0.66 4.1,0.66 0.88,0 1.8,-0.08 2.81,-0.25 0.99,-0.17 2,-0.4 3.04,-0.73 1.04,-0.31 2.08,-0.71 3.11,-1.18 1.04,-0.46 2.04,-0.99 2.98,-1.61l0 5.8c-1.9,1.1 -3.91,1.95 -6.02,2.55 -2.12,0.6 -4.52,0.9 -7.21,0.9 -2.51,0 -4.75,-0.38 -6.75,-1.12 -2,-0.76 -3.71,-1.86 -5.1,-3.28 -1.41,-1.42 -2.49,-3.18 -3.23,-5.23 -0.76,-2.05 -1.13,-4.38 -1.13,-7zm-14.16 7.09c0,1.36 -0.23,2.61 -0.69,3.78 -0.46,1.16 -1.17,2.17 -2.1,3.02 -0.94,0.86 -2.12,1.53 -3.54,2.01 -1.41,0.48 -3.06,0.73 -4.97,0.73 -1.84,0 -3.6,-0.24 -5.25,-0.71 -1.65,-0.48 -3.05,-1.15 -4.2,-2.03l0 -6.37c0.66,0.46 1.37,0.9 2.15,1.35 0.8,0.43 1.6,0.81 2.42,1.13 0.83,0.33 1.64,0.58 2.43,0.77 0.81,0.19 1.54,0.29 2.22,0.29 1.63,0 2.81,-0.35 3.56,-1.07 0.75,-0.71 1.13,-1.57 1.13,-2.59 0,-0.54 -0.08,-1.02 -0.23,-1.44 -0.14,-0.42 -0.43,-0.82 -0.83,-1.19 -0.42,-0.37 -0.99,-0.73 -1.73,-1.08 -0.74,-0.37 -1.68,-0.74 -2.83,-1.15 -1.57,-0.59 -2.89,-1.21 -3.96,-1.85 -1.07,-0.66 -1.91,-1.37 -2.55,-2.15 -0.64,-0.78 -1.09,-1.63 -1.37,-2.54 -0.27,-0.9 -0.41,-1.9 -0.41,-2.97 0,-1.37 0.3,-2.64 0.88,-3.78 0.59,-1.12 1.38,-2.11 2.4,-2.93 1.01,-0.81 2.2,-1.45 3.57,-1.9 1.36,-0.45 2.82,-0.67 4.37,-0.67 1.4,0 2.78,0.14 4.13,0.42 1.36,0.29 2.67,0.77 3.95,1.45l0 5.74c-1.23,-0.56 -2.52,-1.03 -3.88,-1.4 -1.37,-0.38 -2.72,-0.56 -4.04,-0.56 -1.55,0 -2.72,0.34 -3.51,1.01 -0.78,0.67 -1.18,1.52 -1.18,2.54 0,0.43 0.08,0.85 0.24,1.23 0.17,0.38 0.45,0.76 0.85,1.11 0.4,0.35 0.95,0.72 1.65,1.09 0.69,0.38 1.59,0.76 2.67,1.14 1.5,0.54 2.79,1.1 3.88,1.7 1.09,0.6 1.98,1.27 2.7,2.01 0.71,0.75 1.23,1.6 1.56,2.55 0.35,0.96 0.51,2.07 0.51,3.31zm-42.52 -7.02c0,-3.48 -0.76,-6.09 -2.26,-7.86 -1.5,-1.77 -3.69,-2.64 -6.58,-2.64 -2.91,0 -5.16,0.9 -6.79,2.72 -1.63,1.82 -2.45,4.46 -2.45,7.92 0,1.66 0.22,3.15 0.64,4.48 0.42,1.3 1.04,2.42 1.84,3.33 0.81,0.9 1.78,1.6 2.92,2.08 1.14,0.49 2.42,0.73 3.84,0.73 2.88,0 5.08,-0.92 6.58,-2.76 1.5,-1.84 2.26,-4.51 2.26,-8zm7.23 0.01c0,2.48 -0.38,4.75 -1.17,6.79 -0.77,2.04 -1.87,3.78 -3.29,5.23 -1.43,1.44 -3.16,2.56 -5.2,3.35 -2.04,0.8 -4.33,1.19 -6.88,1.19 -2.45,0 -4.68,-0.38 -6.67,-1.15 -1.98,-0.76 -3.68,-1.84 -5.07,-3.23 -1.41,-1.4 -2.48,-3.09 -3.25,-5.09 -0.76,-1.99 -1.14,-4.21 -1.14,-6.67 0,-2.63 0.38,-4.97 1.17,-7.05 0.77,-2.07 1.9,-3.82 3.36,-5.27 1.46,-1.44 3.24,-2.54 5.33,-3.3 2.07,-0.74 4.43,-1.13 7.06,-1.13 2.53,0 4.76,0.37 6.71,1.11 1.96,0.74 3.6,1.82 4.94,3.22 1.34,1.41 2.36,3.11 3.06,5.14 0.71,2.01 1.05,4.3 1.05,6.85zm-54.82 -0.01c0,-3.48 -0.76,-6.09 -2.26,-7.86 -1.5,-1.77 -3.69,-2.64 -6.57,-2.64 -2.91,0 -5.17,0.9 -6.79,2.72 -1.63,1.82 -2.45,4.46 -2.45,7.92 0,1.66 0.22,3.15 0.64,4.48 0.42,1.3 1.04,2.42 1.83,3.33 0.81,0.9 1.78,1.6 2.92,2.08 1.14,0.49 2.42,0.73 3.85,0.73 2.88,0 5.07,-0.92 6.57,-2.76 1.5,-1.84 2.26,-4.51 2.26,-8zm7.23 0.01c0,2.48 -0.38,4.75 -1.17,6.79 -0.77,2.04 -1.87,3.78 -3.29,5.23 -1.44,1.44 -3.17,2.56 -5.2,3.35 -2.04,0.8 -4.33,1.19 -6.88,1.19 -2.45,0 -4.68,-0.38 -6.66,-1.15 -1.98,-0.76 -3.68,-1.84 -5.07,-3.23 -1.41,-1.4 -2.49,-3.09 -3.25,-5.09 -0.76,-1.99 -1.14,-4.21 -1.14,-6.67 0,-2.63 0.38,-4.97 1.17,-7.05 0.77,-2.07 1.9,-3.82 3.36,-5.27 1.46,-1.44 3.24,-2.54 5.33,-3.3 2.08,-0.74 4.43,-1.13 7.06,-1.13 2.54,0 4.77,0.37 6.71,1.11 1.96,0.74 3.6,1.82 4.93,3.22 1.35,1.41 2.36,3.11 3.06,5.14 0.7,2.01 1.05,4.3 1.05,6.85zm-56.66 15.85l-7.23 0 0 -19.47c0,-2.23 -0.45,-3.92 -1.33,-5.11 -0.9,-1.19 -2.24,-1.78 -4.04,-1.78 -0.88,0 -1.72,0.1 -2.5,0.33 -0.8,0.21 -1.52,0.5 -2.2,0.86 -0.68,0.35 -1.29,0.74 -1.84,1.19 -0.55,0.43 -1.04,0.86 -1.46,1.29l0 22.69 -7.23 0 0 -49.58 7.23 0 0 15.99c0,0.31 0,0.68 -0.01,1.12 -0.01,0.44 -0.03,0.88 -0.04,1.36 -0.01,0.47 -0.02,0.93 -0.03,1.37 -0.01,0.45 -0.04,0.85 -0.06,1.2 0.52,-0.46 1.14,-0.9 1.84,-1.33 0.7,-0.43 1.46,-0.82 2.29,-1.18 0.82,-0.34 1.69,-0.61 2.6,-0.82 0.91,-0.2 1.84,-0.3 2.8,-0.3 3.83,0 6.66,1.07 8.48,3.22 1.83,2.14 2.74,5.2 2.74,9.19l0 19.76z"/>
  </g>
 </g>
</svg>
